<svg width="109" height="91" viewBox="0 0 109 91" fill="none" xmlns="http://www.w3.org/2000/svg">
<rect x="9" width="91" height="91" fill="#202027"/>
<path d="M28.64 71.444H23.402L22.502 74H20.36L24.842 61.472H27.218L31.7 74H29.54L28.64 71.444ZM28.064 69.77L26.03 63.956L23.978 69.77H28.064ZM35.7008 60.68V74H33.6488V60.68H35.7008ZM40.4469 65.558C40.7949 65.078 41.2689 64.688 41.8689 64.388C42.4809 64.076 43.1589 63.92 43.9029 63.92C44.7789 63.92 45.5709 64.13 46.2789 64.55C46.9869 64.97 47.5449 65.57 47.9529 66.35C48.3609 67.118 48.5649 68 48.5649 68.996C48.5649 69.992 48.3609 70.886 47.9529 71.678C47.5449 72.458 46.9809 73.07 46.2609 73.514C45.5529 73.946 44.7669 74.162 43.9029 74.162C43.1349 74.162 42.4509 74.012 41.8509 73.712C41.2629 73.412 40.7949 73.028 40.4469 72.56V74H38.3949V60.68H40.4469V65.558ZM46.4769 68.996C46.4769 68.312 46.3329 67.724 46.0449 67.232C45.7689 66.728 45.3969 66.35 44.9289 66.098C44.4729 65.834 43.9809 65.702 43.4529 65.702C42.9369 65.702 42.4449 65.834 41.9769 66.098C41.5209 66.362 41.1489 66.746 40.8609 67.25C40.5849 67.754 40.4469 68.348 40.4469 69.032C40.4469 69.716 40.5849 70.316 40.8609 70.832C41.1489 71.336 41.5209 71.72 41.9769 71.984C42.4449 72.248 42.9369 72.38 43.4529 72.38C43.9809 72.38 44.4729 72.248 44.9289 71.984C45.3969 71.708 45.7689 71.312 46.0449 70.796C46.3329 70.28 46.4769 69.68 46.4769 68.996ZM59.5761 64.082V74H57.5241V72.83C57.2001 73.238 56.7741 73.562 56.2461 73.802C55.7301 74.03 55.1781 74.144 54.5901 74.144C53.8101 74.144 53.1081 73.982 52.4841 73.658C51.8721 73.334 51.3861 72.854 51.0261 72.218C50.6781 71.582 50.5041 70.814 50.5041 69.914V64.082H52.5381V69.608C52.5381 70.496 52.7601 71.18 53.2041 71.66C53.6481 72.128 54.2541 72.362 55.0221 72.362C55.7901 72.362 56.3961 72.128 56.8401 71.66C57.2961 71.18 57.5241 70.496 57.5241 69.608V64.082H59.5761ZM74.2896 63.92C75.0696 63.92 75.7656 64.082 76.3776 64.406C77.0016 64.73 77.4876 65.21 77.8356 65.846C78.1956 66.482 78.3756 67.25 78.3756 68.15V74H76.3416V68.456C76.3416 67.568 76.1196 66.89 75.6756 66.422C75.2316 65.942 74.6256 65.702 73.8576 65.702C73.0896 65.702 72.4776 65.942 72.0216 66.422C71.5776 66.89 71.3556 67.568 71.3556 68.456V74H69.3216V68.456C69.3216 67.568 69.0996 66.89 68.6556 66.422C68.2116 65.942 67.6056 65.702 66.8376 65.702C66.0696 65.702 65.4576 65.942 65.0016 66.422C64.5576 66.89 64.3356 67.568 64.3356 68.456V74H62.2836V64.082H64.3356V65.216C64.6716 64.808 65.0976 64.49 65.6136 64.262C66.1296 64.034 66.6816 63.92 67.2696 63.92C68.0616 63.92 68.7696 64.088 69.3936 64.424C70.0176 64.76 70.4976 65.246 70.8336 65.882C71.1336 65.282 71.6016 64.808 72.2376 64.46C72.8736 64.1 73.5576 63.92 74.2896 63.92ZM84.5867 74.162C83.8067 74.162 83.1047 74.024 82.4807 73.748C81.8687 73.46 81.3827 73.076 81.0227 72.596C80.6627 72.104 80.4707 71.558 80.4467 70.958H82.5707C82.6067 71.378 82.8047 71.732 83.1647 72.02C83.5367 72.296 83.9987 72.434 84.5507 72.434C85.1267 72.434 85.5707 72.326 85.8827 72.11C86.2067 71.882 86.3687 71.594 86.3687 71.246C86.3687 70.874 86.1887 70.598 85.8287 70.418C85.4807 70.238 84.9227 70.04 84.1547 69.824C83.4107 69.62 82.8047 69.422 82.3367 69.23C81.8687 69.038 81.4607 68.744 81.1127 68.348C80.7767 67.952 80.6087 67.43 80.6087 66.782C80.6087 66.254 80.7647 65.774 81.0767 65.342C81.3887 64.898 81.8327 64.55 82.4087 64.298C82.9967 64.046 83.6687 63.92 84.4247 63.92C85.5527 63.92 86.4587 64.208 87.1427 64.784C87.8387 65.348 88.2107 66.122 88.2587 67.106H86.2067C86.1707 66.662 85.9907 66.308 85.6667 66.044C85.3427 65.78 84.9047 65.648 84.3527 65.648C83.8127 65.648 83.3987 65.75 83.1107 65.954C82.8227 66.158 82.6787 66.428 82.6787 66.764C82.6787 67.028 82.7747 67.25 82.9667 67.43C83.1587 67.61 83.3927 67.754 83.6687 67.862C83.9447 67.958 84.3527 68.084 84.8927 68.24C85.6127 68.432 86.2007 68.63 86.6567 68.834C87.1247 69.026 87.5267 69.314 87.8627 69.698C88.1987 70.082 88.3727 70.592 88.3847 71.228C88.3847 71.792 88.2287 72.296 87.9167 72.74C87.6047 73.184 87.1607 73.532 86.5847 73.784C86.0207 74.036 85.3547 74.162 84.5867 74.162Z" fill="white"/>
<path d="M69.547 26.8752L73 29L54.997 40.0833L37 29L40.4515 26.8752L54.997 35.8337L69.547 26.8752ZM54.997 43.7488L40.4515 34.7902L37 36.9167L54.997 48L73 36.9167L69.547 34.7918L54.997 43.7488ZM73 21.0833L54.997 10L37 21.0833L54.997 32.1667L73 21.0833Z" fill="#EAEAEA"/>
</svg>
