<svg width="109" height="91" viewBox="0 0 109 91" fill="none" xmlns="http://www.w3.org/2000/svg">
<rect x="8" width="91" height="91" fill="#202027"/>
<path d="M24.6504 67.718C24.6504 66.494 24.9324 65.396 25.4964 64.424C26.0724 63.452 26.8464 62.696 27.8184 62.156C28.8024 61.604 29.8764 61.328 31.0404 61.328C32.3724 61.328 33.5544 61.658 34.5864 62.318C35.6304 62.966 36.3864 63.89 36.8544 65.09H34.3884C34.0644 64.43 33.6144 63.938 33.0384 63.614C32.4624 63.29 31.7964 63.128 31.0404 63.128C30.2124 63.128 29.4744 63.314 28.8264 63.686C28.1784 64.058 27.6684 64.592 27.2964 65.288C26.9364 65.984 26.7564 66.794 26.7564 67.718C26.7564 68.642 26.9364 69.452 27.2964 70.148C27.6684 70.844 28.1784 71.384 28.8264 71.768C29.4744 72.14 30.2124 72.326 31.0404 72.326C31.7964 72.326 32.4624 72.164 33.0384 71.84C33.6144 71.516 34.0644 71.024 34.3884 70.364H36.8544C36.3864 71.564 35.6304 72.488 34.5864 73.136C33.5544 73.784 32.3724 74.108 31.0404 74.108C29.8644 74.108 28.7904 73.838 27.8184 73.298C26.8464 72.746 26.0724 71.984 25.4964 71.012C24.9324 70.04 24.6504 68.942 24.6504 67.718ZM44.3863 63.92C45.1423 63.92 45.8143 64.082 46.4023 64.406C47.0023 64.73 47.4703 65.21 47.8063 65.846C48.1543 66.482 48.3283 67.25 48.3283 68.15V74H46.2943V68.456C46.2943 67.568 46.0723 66.89 45.6283 66.422C45.1843 65.942 44.5783 65.702 43.8103 65.702C43.0423 65.702 42.4303 65.942 41.9743 66.422C41.5303 66.89 41.3083 67.568 41.3083 68.456V74H39.2563V60.68H41.3083V65.234C41.6563 64.814 42.0943 64.49 42.6223 64.262C43.1623 64.034 43.7503 63.92 44.3863 63.92ZM50.2617 68.996C50.2617 68 50.4657 67.118 50.8737 66.35C51.2937 65.582 51.8577 64.988 52.5657 64.568C53.2857 64.136 54.0777 63.92 54.9417 63.92C55.7217 63.92 56.3997 64.076 56.9757 64.388C57.5637 64.688 58.0317 65.066 58.3797 65.522V64.082H60.4497V74H58.3797V72.524C58.0317 72.992 57.5577 73.382 56.9577 73.694C56.3577 74.006 55.6737 74.162 54.9057 74.162C54.0537 74.162 53.2737 73.946 52.5657 73.514C51.8577 73.07 51.2937 72.458 50.8737 71.678C50.4657 70.886 50.2617 69.992 50.2617 68.996ZM58.3797 69.032C58.3797 68.348 58.2357 67.754 57.9477 67.25C57.6717 66.746 57.3057 66.362 56.8497 66.098C56.3937 65.834 55.9017 65.702 55.3737 65.702C54.8457 65.702 54.3537 65.834 53.8977 66.098C53.4417 66.35 53.0697 66.728 52.7817 67.232C52.5057 67.724 52.3677 68.312 52.3677 68.996C52.3677 69.68 52.5057 70.28 52.7817 70.796C53.0697 71.312 53.4417 71.708 53.8977 71.984C54.3657 72.248 54.8577 72.38 55.3737 72.38C55.9017 72.38 56.3937 72.248 56.8497 71.984C57.3057 71.72 57.6717 71.336 57.9477 70.832C58.2357 70.316 58.3797 69.716 58.3797 69.032ZM65.1969 65.522C65.4969 65.018 65.8929 64.628 66.3849 64.352C66.8889 64.064 67.4829 63.92 68.1669 63.92V66.044H67.6449C66.8409 66.044 66.2289 66.248 65.8089 66.656C65.4009 67.064 65.1969 67.772 65.1969 68.78V74H63.1449V64.082H65.1969V65.522ZM72.4471 65.756V71.246C72.4471 71.618 72.5311 71.888 72.6991 72.056C72.8791 72.212 73.1791 72.29 73.5991 72.29H74.8591V74H73.2391C72.3151 74 71.6071 73.784 71.1151 73.352C70.6231 72.92 70.3771 72.218 70.3771 71.246V65.756H69.2071V64.082H70.3771V61.616H72.4471V64.082H74.8591V65.756H72.4471ZM80.3504 74.162C79.5704 74.162 78.8684 74.024 78.2444 73.748C77.6324 73.46 77.1464 73.076 76.7864 72.596C76.4264 72.104 76.2344 71.558 76.2104 70.958H78.3344C78.3704 71.378 78.5684 71.732 78.9284 72.02C79.3004 72.296 79.7624 72.434 80.3144 72.434C80.8904 72.434 81.3344 72.326 81.6464 72.11C81.9704 71.882 82.1324 71.594 82.1324 71.246C82.1324 70.874 81.9524 70.598 81.5924 70.418C81.2444 70.238 80.6864 70.04 79.9184 69.824C79.1744 69.62 78.5684 69.422 78.1004 69.23C77.6324 69.038 77.2244 68.744 76.8764 68.348C76.5404 67.952 76.3724 67.43 76.3724 66.782C76.3724 66.254 76.5284 65.774 76.8404 65.342C77.1524 64.898 77.5964 64.55 78.1724 64.298C78.7604 64.046 79.4324 63.92 80.1884 63.92C81.3164 63.92 82.2224 64.208 82.9064 64.784C83.6024 65.348 83.9744 66.122 84.0224 67.106H81.9704C81.9344 66.662 81.7544 66.308 81.4304 66.044C81.1064 65.78 80.6684 65.648 80.1164 65.648C79.5764 65.648 79.1624 65.75 78.8744 65.954C78.5864 66.158 78.4424 66.428 78.4424 66.764C78.4424 67.028 78.5384 67.25 78.7304 67.43C78.9224 67.61 79.1564 67.754 79.4324 67.862C79.7084 67.958 80.1164 68.084 80.6564 68.24C81.3764 68.432 81.9644 68.63 82.4204 68.834C82.8884 69.026 83.2904 69.314 83.6264 69.698C83.9624 70.082 84.1364 70.592 84.1484 71.228C84.1484 71.792 83.9924 72.296 83.6804 72.74C83.3684 73.184 82.9244 73.532 82.3484 73.784C81.7844 74.036 81.1184 74.162 80.3504 74.162Z" fill="white"/>
<path d="M60.1065 29.4897C58.4337 30.9282 47.4797 40.3517 44.9435 42.535L40.6551 37.9274L52.8478 21.6909L60.1065 29.4897ZM68.5481 12.6331C65.2805 9.12232 59.9808 9.12232 56.7133 12.6331C54.5587 14.9496 54.3758 17.4883 54.2709 18.3886L63.1912 27.9727C63.9608 27.8804 66.3745 27.6839 68.5481 25.3486C71.8173 21.8378 71.8173 16.1438 68.5481 12.6331ZM52.9114 43.2815C49.2669 43.2815 47.6021 45.7194 45.2536 47.3048C43.5904 48.4255 42.0162 47.8566 41.2593 46.8504C40.9843 46.4899 40.1988 45.1915 41.536 43.7035L41.3372 43.4899L39.5468 41.6261C37.3653 44.0452 37.7516 46.9358 39.1032 48.7278C40.6535 50.7847 43.7716 51.8234 46.7276 49.8298C49.2478 48.1299 50.3641 46.2627 52.9114 46.2627C54.5587 46.2627 56.0597 47.0554 58.4528 51L60.7758 49.3736C58.5609 45.7177 56.3745 43.2815 52.9114 43.2815Z" fill="#EAEAEA"/>
</svg>
