<svg width="109" height="91" viewBox="0 0 109 91" fill="none" xmlns="http://www.w3.org/2000/svg">
<rect x="11" width="91" height="91" fill="#202027"/>
<path d="M46.3414 61.49V74H44.2894V65.432L40.4734 74H39.0514L35.2174 65.432V74H33.1654V61.49H35.3794L39.7714 71.3L44.1454 61.49H46.3414ZM53.3405 74.162C52.4045 74.162 51.5585 73.952 50.8025 73.532C50.0465 73.1 49.4525 72.5 49.0205 71.732C48.5885 70.952 48.3725 70.052 48.3725 69.032C48.3725 68.024 48.5945 67.13 49.0385 66.35C49.4825 65.57 50.0885 64.97 50.8565 64.55C51.6245 64.13 52.4825 63.92 53.4305 63.92C54.3785 63.92 55.2365 64.13 56.0045 64.55C56.7725 64.97 57.3785 65.57 57.8225 66.35C58.2665 67.13 58.4885 68.024 58.4885 69.032C58.4885 70.04 58.2605 70.934 57.8045 71.714C57.3485 72.494 56.7245 73.1 55.9325 73.532C55.1525 73.952 54.2885 74.162 53.3405 74.162ZM53.3405 72.38C53.8685 72.38 54.3605 72.254 54.8165 72.002C55.2845 71.75 55.6625 71.372 55.9505 70.868C56.2385 70.364 56.3825 69.752 56.3825 69.032C56.3825 68.312 56.2445 67.706 55.9685 67.214C55.6925 66.71 55.3265 66.332 54.8705 66.08C54.4145 65.828 53.9225 65.702 53.3945 65.702C52.8665 65.702 52.3745 65.828 51.9185 66.08C51.4745 66.332 51.1205 66.71 50.8565 67.214C50.5925 67.706 50.4605 68.312 50.4605 69.032C50.4605 70.1 50.7305 70.928 51.2705 71.516C51.8225 72.092 52.5125 72.38 53.3405 72.38ZM62.569 65.522C62.869 65.018 63.265 64.628 63.757 64.352C64.261 64.064 64.855 63.92 65.539 63.92V66.044H65.017C64.213 66.044 63.601 66.248 63.181 66.656C62.773 67.064 62.569 67.772 62.569 68.78V74H60.517V64.082H62.569V65.522ZM76.5152 68.798C76.5152 69.17 76.4912 69.506 76.4432 69.806H68.8652C68.9252 70.598 69.2192 71.234 69.7472 71.714C70.2752 72.194 70.9232 72.434 71.6912 72.434C72.7952 72.434 73.5752 71.972 74.0312 71.048H76.2452C75.9452 71.96 75.3992 72.71 74.6072 73.298C73.8272 73.874 72.8552 74.162 71.6912 74.162C70.7432 74.162 69.8912 73.952 69.1352 73.532C68.3912 73.1 67.8032 72.5 67.3712 71.732C66.9512 70.952 66.7412 70.052 66.7412 69.032C66.7412 68.012 66.9452 67.118 67.3532 66.35C67.7732 65.57 68.3552 64.97 69.0992 64.55C69.8552 64.13 70.7192 63.92 71.6912 63.92C72.6272 63.92 73.4612 64.124 74.1932 64.532C74.9252 64.94 75.4952 65.516 75.9032 66.26C76.3112 66.992 76.5152 67.838 76.5152 68.798ZM74.3732 68.15C74.3612 67.394 74.0912 66.788 73.5632 66.332C73.0352 65.876 72.3812 65.648 71.6012 65.648C70.8932 65.648 70.2872 65.876 69.7832 66.332C69.2792 66.776 68.9792 67.382 68.8832 68.15H74.3732Z" fill="white"/>
<path d="M55 15C63.271 15 70 21.729 70 30C70 38.271 63.271 45 55 45C46.729 45 40 38.271 40 30C40 21.729 46.729 15 55 15ZM55 12C45.0595 12 37 20.0595 37 30C37 39.9405 45.0595 48 55 48C64.9405 48 73 39.9405 73 30C73 20.0595 64.9405 12 55 12ZM58 30L51.25 36.75L53.5405 39L62.5 30L53.5405 21L51.25 23.25L58 30Z" fill="#EAEAEA"/>
</svg>
